<svg xmlns="http://www.w3.org/2000/svg" viewBox="0 0 800 880" width="800" height="880">
  <rect x="0" y="0" width="800" height="880" rx="28" ry="28" fill="#1e3a5f"></rect>
  <g transform="translate(400 417)" stroke-width="1.5" fill="none" opacity="0.95">
    <line x1="0" y1="-95" x2="0" y2="-220" stroke="#b8932a"></line>
    <line x1="64.87" y1="-89.29" x2="123.43" y2="-169.89" stroke="#2c7370"></line>
    <line x1="159.32" y1="-51.76" x2="196.87" y2="-63.97" stroke="#ede4d2"></line>
    <line x1="159.32" y1="51.76" x2="196.87" y2="63.97" stroke="#c44a30"></line>
    <line x1="64.87" y1="89.29" x2="125.79" y2="173.13" stroke="#b8932a"></line>
    <line x1="0" y1="95" x2="0" y2="230" stroke="#2c7370"></line>
    <line x1="-64.87" y1="89.29" x2="-129.31" y2="177.98" stroke="#ede4d2"></line>
    <line x1="-159.32" y1="51.76" x2="-203.53" y2="66.13" stroke="#c44a30"></line>
    <line x1="-159.32" y1="-51.76" x2="-209.23" y2="-67.98" stroke="#b8932a"></line>
    <line x1="-64.87" y1="-89.29" x2="-125.79" y2="-173.13" stroke="#2c7370"></line>
  </g>
  <g transform="translate(400 417)">
    <circle cx="0" cy="-238" r="16" fill="#b8932a"></circle>
    <circle cx="134.02" cy="-184.46" r="16" fill="#2c7370"></circle>
    <circle cx="213.99" cy="-69.53" r="16" fill="#ede4d2"></circle>
    <circle cx="213.99" cy="69.53" r="16" fill="#c44a30"></circle>
    <circle cx="136.37" cy="187.69" r="16" fill="#b8932a"></circle>
    <circle cx="0" cy="248" r="16" fill="#2c7370"></circle>
    <circle cx="-139.89" cy="192.55" r="16" fill="#ede4d2"></circle>
    <circle cx="-220.65" cy="71.69" r="16" fill="#c44a30"></circle>
    <circle cx="-226.35" cy="-73.55" r="16" fill="#b8932a"></circle>
    <circle cx="-136.37" cy="-187.69" r="16" fill="#2c7370"></circle>
  </g>
  <g transform="translate(249.112 470)" fill="#ede4d2"><path d="M31.080-89.392L31.080-89.392Q22.052-89.392 16.354-83.768Q10.656-78.144 7.400-67.192L7.400-67.192Q7.400-67.044 7.400-67.044L7.400-67.044Q7.252-66.748 6.660-66.896L6.660-66.896Q5.772-66.896 5.772-67.192L5.772-67.192Q6.068-69.264 6.364-72.890Q6.660-76.516 7.030-80.808Q7.400-85.100 7.622-89.170Q7.844-93.240 7.844-95.756L7.844-95.756Q7.844-96.496 8.658-96.496Q9.472-96.496 9.472-95.756L9.472-95.756Q9.472-94.276 11.026-93.610Q12.580-92.944 14.504-92.722Q16.428-92.500 17.760-92.500L17.760-92.500Q30.488-92.056 47.508-92.056L47.508-92.056Q58.016-92.056 64.158-92.278Q70.300-92.500 76.072-92.500L76.072-92.500Q81.400-92.500 84.138-93.166Q86.876-93.832 87.616-96.200L87.616-96.200Q87.764-96.792 88.504-96.792Q89.244-96.792 89.244-96.200L89.244-96.200Q89.096-93.832 88.800-89.762Q88.504-85.692 88.356-81.178Q88.208-76.664 88.060-72.890Q87.912-69.116 87.912-67.192L87.912-67.192Q87.912-66.896 87.098-66.896Q86.284-66.896 86.136-67.192L86.136-67.192Q84.508-78.884 79.032-84.138Q73.556-89.392 64.380-89.392L64.380-89.392Q60.384-89.392 58.312-88.652Q56.240-87.912 55.500-85.914Q54.760-83.916 54.760-80.216L54.760-80.216L54.760-11.988Q54.760-7.696 55.722-5.476Q56.684-3.256 59.422-2.516Q62.160-1.776 67.784-1.776L67.784-1.776Q68.228-1.776 68.228-0.888Q68.228 0 67.784 0L67.784 0Q63.788 0 58.682-0.148Q53.576-0.296 47.508-0.296L47.508-0.296Q41.736-0.296 36.704-0.148Q31.672 0 27.380 0L27.380 0Q27.084 0 27.084-0.888Q27.084-1.776 27.380-1.776L27.380-1.776Q33.004-1.776 35.816-2.516Q38.628-3.256 39.590-5.476Q40.552-7.696 40.552-11.988L40.552-11.988L40.552-80.512Q40.552-84.212 39.886-86.062Q39.220-87.912 37.148-88.652Q35.076-89.392 31.080-89.392ZM127.800-89.392L127.800-89.392Q118.772-89.392 113.074-83.768Q107.376-78.144 104.120-67.192L104.120-67.192Q104.120-67.044 104.120-67.044L104.120-67.044Q103.972-66.748 103.380-66.896L103.380-66.896Q102.492-66.896 102.492-67.192L102.492-67.192Q102.788-69.264 103.084-72.890Q103.380-76.516 103.750-80.808Q104.120-85.100 104.342-89.170Q104.564-93.240 104.564-95.756L104.564-95.756Q104.564-96.496 105.378-96.496Q106.192-96.496 106.192-95.756L106.192-95.756Q106.192-94.276 107.746-93.610Q109.300-92.944 111.224-92.722Q113.148-92.500 114.480-92.500L114.480-92.500Q127.208-92.056 144.228-92.056L144.228-92.056Q154.736-92.056 160.878-92.278Q167.020-92.500 172.792-92.500L172.792-92.500Q178.120-92.500 180.858-93.166Q183.596-93.832 184.336-96.200L184.336-96.200Q184.484-96.792 185.224-96.792Q185.964-96.792 185.964-96.200L185.964-96.200Q185.816-93.832 185.520-89.762Q185.224-85.692 185.076-81.178Q184.928-76.664 184.780-72.890Q184.632-69.116 184.632-67.192L184.632-67.192Q184.632-66.896 183.818-66.896Q183.004-66.896 182.856-67.192L182.856-67.192Q181.228-78.884 175.752-84.138Q170.276-89.392 161.100-89.392L161.100-89.392Q157.104-89.392 155.032-88.652Q152.960-87.912 152.220-85.914Q151.480-83.916 151.480-80.216L151.480-80.216L151.480-11.988Q151.480-7.696 152.442-5.476Q153.404-3.256 156.142-2.516Q158.880-1.776 164.504-1.776L164.504-1.776Q164.948-1.776 164.948-0.888Q164.948 0 164.504 0L164.504 0Q160.508 0 155.402-0.148Q150.296-0.296 144.228-0.296L144.228-0.296Q138.456-0.296 133.424-0.148Q128.392 0 124.100 0L124.100 0Q123.804 0 123.804-0.888Q123.804-1.776 124.100-1.776L124.100-1.776Q129.724-1.776 132.536-2.516Q135.348-3.256 136.310-5.476Q137.272-7.696 137.272-11.988L137.272-11.988L137.272-80.512Q137.272-84.212 136.606-86.062Q135.940-87.912 133.868-88.652Q131.796-89.392 127.800-89.392ZM211.940-17.908L211.940-17.908L211.940-82.732Q208.092-86.876 205.132-88.652L205.132-88.652Q201.284-90.724 197.732-90.724L197.732-90.724Q197.288-90.724 197.288-91.612Q197.288-92.500 197.732-92.500L197.732-92.500Q200.544-92.500 203.504-92.352Q206.464-92.204 208.980-92.204L208.980-92.204Q213.420-92.204 217.046-92.352Q220.672-92.500 222.596-92.500Q224.520-92.500 225.408-90.798Q226.296-89.096 229.848-84.804L229.848-84.804L283.128-22.052L283.128-74.444Q283.128-82.288 280.094-86.506Q277.060-90.724 271.140-90.724L271.140-90.724Q270.844-90.724 270.844-91.612Q270.844-92.500 271.140-92.500L271.140-92.500Q274.248-92.500 277.652-92.278Q281.056-92.056 285.052-92.056L285.052-92.056Q288.900-92.056 292.600-92.278Q296.300-92.500 299.408-92.500L299.408-92.500Q299.852-92.500 299.852-91.612Q299.852-90.724 299.408-90.724L299.408-90.724Q293.488-90.724 290.306-86.506Q287.124-82.288 287.124-74.444L287.124-74.444L287.124 2.072Q287.124 2.516 286.384 2.590Q285.644 2.664 285.348 2.516L285.348 2.516L215.936-78.292L215.936-17.908Q215.936-10.064 219.044-5.920Q222.152-1.776 227.924-1.776L227.924-1.776Q228.368-1.776 228.368-0.888Q228.368 0 227.924 0L227.924 0Q224.816 0 221.486-0.148Q218.156-0.296 214.160-0.296L214.160-0.296Q209.868-0.296 205.946-0.148Q202.024 0 198.620 0L198.620 0Q198.176 0 198.176-0.888Q198.176-1.776 198.620-1.776L198.620-1.776Q205.132-1.776 208.536-5.920Q211.940-10.064 211.940-17.908Z"></path></g>
  <g fill="#c8d4e0">
    <g transform="translate(214.659 770)"><path d="M6.300-18.120L6.300-18.120Q4.470-18.120 3.315-16.980Q2.160-15.840 1.500-13.620L1.500-13.620Q1.500-13.590 1.500-13.590L1.500-13.590Q1.470-13.530 1.350-13.560L1.350-13.560Q1.170-13.560 1.170-13.620L1.170-13.620Q1.230-14.040 1.290-14.775Q1.350-15.510 1.425-16.380Q1.500-17.250 1.545-18.075Q1.590-18.900 1.590-19.410L1.590-19.410Q1.590-19.560 1.755-19.560Q1.920-19.560 1.920-19.410L1.920-19.410Q1.920-19.110 2.235-18.975Q2.550-18.840 2.940-18.795Q3.330-18.750 3.600-18.750L3.600-18.750Q6.180-18.660 9.630-18.660L9.630-18.660Q11.760-18.660 13.005-18.705Q14.250-18.750 15.420-18.750L15.420-18.750Q16.500-18.750 17.055-18.885Q17.610-19.020 17.760-19.500L17.760-19.500Q17.790-19.620 17.940-19.620Q18.090-19.620 18.090-19.500L18.090-19.500Q18.060-19.020 18-18.195Q17.940-17.370 17.910-16.455Q17.880-15.540 17.850-14.775Q17.820-14.010 17.820-13.620L17.820-13.620Q17.820-13.560 17.655-13.560Q17.490-13.560 17.460-13.620L17.460-13.620Q17.130-15.990 16.020-17.055Q14.910-18.120 13.050-18.120L13.050-18.120Q12.240-18.120 11.820-17.970Q11.400-17.820 11.250-17.415Q11.100-17.010 11.100-16.260L11.100-16.260L11.100-2.430Q11.100-1.560 11.295-1.110Q11.490-0.660 12.045-0.510Q12.600-0.360 13.740-0.360L13.740-0.360Q13.830-0.360 13.830-0.180Q13.830 0 13.740 0L13.740 0Q12.930 0 11.895-0.030Q10.860-0.060 9.630-0.060L9.630-0.060Q8.460-0.060 7.440-0.030Q6.420 0 5.550 0L5.550 0Q5.490 0 5.490-0.180Q5.490-0.360 5.550-0.360L5.550-0.360Q6.690-0.360 7.260-0.510Q7.830-0.660 8.025-1.110Q8.220-1.560 8.220-2.430L8.220-2.430L8.220-16.320Q8.220-17.070 8.085-17.445Q7.950-17.820 7.530-17.970Q7.110-18.120 6.300-18.120ZM41.790-10.140L41.790-16.260Q41.790-17.130 41.610-17.580Q41.430-18.030 40.890-18.210Q40.350-18.390 39.240-18.390L39.240-18.390Q39.150-18.390 39.150-18.570Q39.150-18.750 39.240-18.750L39.240-18.750Q39.990-18.750 40.965-18.705Q41.940-18.660 43.230-18.660L43.230-18.660Q44.280-18.660 45.300-18.705Q46.320-18.750 47.070-18.750L47.070-18.750Q47.160-18.750 47.160-18.570Q47.160-18.390 47.070-18.390L47.070-18.390Q46.020-18.390 45.495-18.225Q44.970-18.060 44.790-17.625Q44.610-17.190 44.610-16.320L44.610-16.320L44.610-2.430Q44.610-1.560 44.790-1.110Q44.970-0.660 45.495-0.510Q46.020-0.360 47.070-0.360L47.070-0.360Q47.160-0.360 47.160-0.180Q47.160 0 47.070 0L47.070 0Q46.320 0 45.300-0.030Q44.280-0.060 43.230-0.060L43.230-0.060Q41.940-0.060 40.965-0.030Q39.990 0 39.240 0L39.240 0Q39.150 0 39.150-0.180Q39.150-0.360 39.240-0.360L39.240-0.360Q40.350-0.360 40.890-0.510Q41.430-0.660 41.610-1.110Q41.790-1.560 41.790-2.430L41.790-2.430L41.790-9.360L31.470-9.360L31.470-2.430Q31.470-1.560 31.650-1.110Q31.830-0.660 32.385-0.510Q32.940-0.360 33.990-0.360L33.990-0.360Q34.050-0.360 34.050-0.180Q34.050 0 33.990 0L33.990 0Q33.180 0 32.205-0.030Q31.230-0.060 29.940-0.060L29.940-0.060Q28.890-0.060 27.900-0.030Q26.910 0 26.160 0L26.160 0Q26.100 0 26.100-0.180Q26.100-0.360 26.160-0.360L26.160-0.360Q27.210-0.360 27.720-0.510Q28.230-0.660 28.425-1.110Q28.620-1.560 28.620-2.430L28.620-2.430L28.620-16.320Q28.620-17.190 28.440-17.625Q28.260-18.060 27.750-18.225Q27.240-18.390 26.190-18.390L26.190-18.390Q26.130-18.390 26.130-18.570Q26.130-18.750 26.190-18.750L26.190-18.750Q26.970-18.750 27.930-18.705Q28.890-18.660 29.940-18.660L29.940-18.660Q31.230-18.660 32.220-18.705Q33.210-18.750 33.990-18.750L33.990-18.750Q34.050-18.750 34.050-18.570Q34.050-18.390 33.990-18.390L33.990-18.390Q32.910-18.390 32.370-18.210Q31.830-18.030 31.650-17.580Q31.470-17.130 31.470-16.260L31.470-16.260L31.470-10.140L41.790-10.140ZM75.030 0L70.200 0Q69.750 0 68.700-1.140Q67.650-2.280 66.180-4.440L66.180-4.440Q64.770-6.420 63.090-9.120L63.090-9.120Q62.580-9.060 62.040-9.060L62.040-9.060Q61.680-9.060 61.260-9.075Q60.840-9.090 60.510-9.120L60.510-9.120L60.510-2.430Q60.510-1.560 60.660-1.110Q60.810-0.660 61.305-0.510Q61.800-0.360 62.760-0.360L62.760-0.360Q62.850-0.360 62.850-0.180Q62.850 0 62.760 0L62.760 0Q62.010 0 61.080-0.030Q60.150-0.060 59.040-0.060L59.040-0.060Q57.990-0.060 57.030-0.030Q56.070 0 55.320 0L55.320 0Q55.230 0 55.230-0.180Q55.230-0.360 55.320-0.360L55.320-0.360Q56.310-0.360 56.790-0.510Q57.270-0.660 57.450-1.110Q57.630-1.560 57.630-2.430L57.630-2.430L57.630-16.320Q57.630-17.190 57.465-17.625Q57.300-18.060 56.820-18.225Q56.340-18.390 55.350-18.390L55.350-18.390Q55.290-18.390 55.290-18.570Q55.290-18.750 55.350-18.750L55.350-18.750Q56.100-18.750 57.045-18.705Q57.990-18.660 59.040-18.660L59.040-18.660Q60-18.660 61.200-18.750Q62.400-18.840 63.390-18.840L63.390-18.840Q66-18.840 67.425-17.805Q68.850-16.770 68.850-14.970L68.850-14.970Q68.850-13.260 67.890-11.910L67.890-11.910Q66.960-10.620 65.490-9.870L65.490-9.870Q67.770-6.510 69.420-4.470L69.420-4.470Q71.130-2.280 72.465-1.320Q73.800-0.360 75.030-0.360L75.030-0.360Q75.090-0.360 75.090-0.180Q75.090 0 75.030 0L75.030 0ZM65.880-13.920L65.880-13.920Q65.880-15.660 65.475-16.605Q65.070-17.550 64.350-17.910Q63.630-18.270 62.670-18.270L62.670-18.270Q61.500-18.270 61.005-17.835Q60.510-17.400 60.510-16.260L60.510-16.260L60.510-9.930Q60.930-9.870 61.410-9.840Q61.890-9.810 62.250-9.810L62.250-9.810Q64.260-9.810 65.070-10.815Q65.880-11.820 65.880-13.920ZM91.710 0.360L91.710 0.360Q89.550 0.360 87.795-0.405Q86.040-1.170 84.795-2.520Q83.550-3.870 82.875-5.625Q82.200-7.380 82.200-9.360L82.200-9.360Q82.200-11.790 83.145-13.620Q84.090-15.450 85.650-16.665Q87.210-17.880 89.070-18.480Q90.930-19.080 92.760-19.080L92.760-19.080Q94.980-19.080 96.735-18.285Q98.490-17.490 99.720-16.140Q100.950-14.790 101.595-13.080Q102.240-11.370 102.240-9.570L102.240-9.570Q102.240-7.470 101.400-5.670Q100.560-3.870 99.105-2.520Q97.650-1.170 95.745-0.405Q93.840 0.360 91.710 0.360ZM92.730-0.360L92.730-0.360Q94.530-0.360 95.955-1.320Q97.380-2.280 98.205-4.155Q99.030-6.030 99.030-8.700L99.030-8.700Q99.030-11.490 98.130-13.650Q97.230-15.810 95.550-17.055Q93.870-18.300 91.530-18.300L91.530-18.300Q88.620-18.300 87.015-16.215Q85.410-14.130 85.410-10.440L85.410-10.440Q85.410-8.280 85.950-6.435Q86.490-4.590 87.465-3.210Q88.440-1.830 89.775-1.095Q91.110-0.360 92.730-0.360ZM126.840-6.660L126.840-15.090Q126.840-16.650 126.135-17.520Q125.430-18.390 124.110-18.390L124.110-18.390Q124.050-18.390 124.050-18.570Q124.050-18.750 124.110-18.750L124.110-18.750Q124.860-18.750 125.625-18.705Q126.390-18.660 127.290-18.660L127.290-18.660Q128.070-18.660 128.835-18.705Q129.600-18.750 130.230-18.750L130.230-18.750Q130.290-18.750 130.290-18.570Q130.290-18.390 130.230-18.390L130.230-18.390Q129.030-18.390 128.400-17.520Q127.770-16.650 127.770-15.090L127.770-15.090L127.770-6.690Q127.770-4.500 126.855-2.910Q125.940-1.320 124.290-0.450Q122.640 0.420 120.420 0.420L120.420 0.420Q118.230 0.420 116.520-0.435Q114.810-1.290 113.865-2.880Q112.920-4.470 112.920-6.660L112.920-6.660L112.920-16.320Q112.920-17.190 112.755-17.625Q112.590-18.060 112.095-18.225Q111.600-18.390 110.640-18.390L110.640-18.390Q110.550-18.390 110.550-18.570Q110.550-18.750 110.640-18.750L110.640-18.750Q111.390-18.750 112.335-18.705Q113.280-18.660 114.330-18.660L114.330-18.660Q115.440-18.660 116.370-18.705Q117.300-18.750 118.050-18.750L118.050-18.750Q118.140-18.750 118.140-18.570Q118.140-18.390 118.050-18.390L118.050-18.390Q117.060-18.390 116.580-18.210Q116.100-18.030 115.935-17.580Q115.770-17.130 115.770-16.260L115.770-16.260L115.770-7.710Q115.770-4.050 117.285-2.340Q118.800-0.630 121.410-0.630L121.410-0.630Q123.960-0.630 125.400-2.205Q126.840-3.780 126.840-6.660L126.840-6.660ZM149.250 0.360L149.250 0.360Q146.640 0.360 144.585-0.405Q142.530-1.170 141.105-2.505Q139.680-3.840 138.945-5.580Q138.210-7.320 138.210-9.330L138.210-9.330Q138.210-11.520 139.080-13.305Q139.950-15.090 141.510-16.380Q143.070-17.670 145.170-18.375Q147.270-19.080 149.760-19.080L149.760-19.080Q151.230-19.080 152.655-18.840Q154.080-18.600 154.980-18.150L154.980-18.150Q155.280-18.030 155.325-17.955Q155.370-17.880 155.400-17.460L155.400-17.460L155.790-13.530Q155.790-13.440 155.640-13.410Q155.490-13.380 155.430-13.470L155.430-13.470Q155.190-14.220 154.665-15.090Q154.140-15.960 153.330-16.725Q152.520-17.490 151.395-18Q150.270-18.510 148.800-18.510L148.800-18.510Q146.730-18.510 145.050-17.460Q143.370-16.410 142.380-14.490Q141.390-12.570 141.390-9.900L141.390-9.900Q141.390-7.830 141.990-6.075Q142.590-4.320 143.715-2.970Q144.840-1.620 146.430-0.870Q148.020-0.120 150-0.120L150-0.120Q151.230-0.120 151.980-0.420Q152.730-0.720 153.060-1.515Q153.390-2.310 153.390-3.780L153.390-3.780Q153.390-5.220 153.225-5.895Q153.060-6.570 152.400-6.780Q151.740-6.990 150.270-6.990L150.270-6.990Q150.090-6.990 150.090-7.230Q150.090-7.470 150.240-7.470L150.240-7.470Q152.280-7.350 153.915-7.335Q155.550-7.320 157.350-7.410L157.350-7.410Q157.470-7.410 157.500-7.200L157.500-7.200Q157.500-7.050 157.440-7.020L157.440-7.020Q157.410-6.990 157.350-6.990L157.350-6.990Q156.780-7.020 156.510-6.795Q156.240-6.570 156.165-5.820Q156.090-5.070 156.090-3.480L156.090-3.480Q156.090-2.490 156.150-2.010Q156.210-1.530 156.255-1.305Q156.300-1.080 156.300-0.840L156.300-0.840Q156.300-0.660 156.240-0.600Q156.180-0.540 155.970-0.480L155.970-0.480Q154.380-0.120 152.610 0.120Q150.840 0.360 149.250 0.360ZM181.080-10.140L181.080-16.260Q181.080-17.130 180.900-17.580Q180.720-18.030 180.180-18.210Q179.640-18.390 178.530-18.390L178.530-18.390Q178.440-18.390 178.440-18.570Q178.440-18.750 178.530-18.750L178.530-18.750Q179.280-18.750 180.255-18.705Q181.230-18.660 182.520-18.660L182.520-18.660Q183.570-18.660 184.590-18.705Q185.610-18.750 186.360-18.750L186.360-18.750Q186.450-18.750 186.450-18.570Q186.450-18.390 186.360-18.390L186.360-18.390Q185.310-18.390 184.785-18.225Q184.260-18.060 184.080-17.625Q183.900-17.190 183.900-16.320L183.900-16.320L183.900-2.430Q183.900-1.560 184.080-1.110Q184.260-0.660 184.785-0.510Q185.310-0.360 186.360-0.360L186.360-0.360Q186.450-0.360 186.450-0.180Q186.450 0 186.360 0L186.360 0Q185.610 0 184.590-0.030Q183.570-0.060 182.520-0.060L182.520-0.060Q181.230-0.060 180.255-0.030Q179.280 0 178.530 0L178.530 0Q178.440 0 178.440-0.180Q178.440-0.360 178.530-0.360L178.530-0.360Q179.640-0.360 180.180-0.510Q180.720-0.660 180.900-1.110Q181.080-1.560 181.080-2.430L181.080-2.430L181.080-9.360L170.760-9.360L170.760-2.430Q170.760-1.560 170.940-1.110Q171.120-0.660 171.675-0.510Q172.230-0.360 173.280-0.360L173.280-0.360Q173.340-0.360 173.340-0.180Q173.340 0 173.280 0L173.280 0Q172.470 0 171.495-0.030Q170.520-0.060 169.230-0.060L169.230-0.060Q168.180-0.060 167.190-0.030Q166.200 0 165.450 0L165.450 0Q165.390 0 165.390-0.180Q165.390-0.360 165.450-0.360L165.450-0.360Q166.500-0.360 167.010-0.510Q167.520-0.660 167.715-1.110Q167.910-1.560 167.910-2.430L167.910-2.430L167.910-16.320Q167.910-17.190 167.730-17.625Q167.550-18.060 167.040-18.225Q166.530-18.390 165.480-18.390L165.480-18.390Q165.420-18.390 165.420-18.570Q165.420-18.750 165.480-18.750L165.480-18.750Q166.260-18.750 167.220-18.705Q168.180-18.660 169.230-18.660L169.230-18.660Q170.520-18.660 171.510-18.705Q172.500-18.750 173.280-18.750L173.280-18.750Q173.340-18.750 173.340-18.570Q173.340-18.390 173.280-18.390L173.280-18.390Q172.200-18.390 171.660-18.210Q171.120-18.030 170.940-17.580Q170.760-17.130 170.760-16.260L170.760-16.260L170.760-10.140L181.080-10.140ZM212.670-18.120L212.670-18.120Q210.840-18.120 209.685-16.980Q208.530-15.840 207.870-13.620L207.870-13.620Q207.870-13.590 207.870-13.590L207.870-13.590Q207.840-13.530 207.720-13.560L207.720-13.560Q207.540-13.560 207.540-13.620L207.540-13.620Q207.600-14.040 207.660-14.775Q207.720-15.510 207.795-16.380Q207.870-17.250 207.915-18.075Q207.960-18.900 207.960-19.410L207.960-19.410Q207.960-19.560 208.125-19.560Q208.290-19.560 208.290-19.410L208.290-19.410Q208.290-19.110 208.605-18.975Q208.920-18.840 209.310-18.795Q209.700-18.750 209.970-18.750L209.970-18.750Q212.550-18.660 216.000-18.660L216.000-18.660Q218.130-18.660 219.375-18.705Q220.620-18.750 221.790-18.750L221.790-18.750Q222.870-18.750 223.425-18.885Q223.980-19.020 224.130-19.500L224.130-19.500Q224.160-19.620 224.310-19.620Q224.460-19.620 224.460-19.500L224.460-19.500Q224.430-19.020 224.370-18.195Q224.310-17.370 224.280-16.455Q224.250-15.540 224.220-14.775Q224.190-14.010 224.190-13.620L224.190-13.620Q224.190-13.560 224.025-13.560Q223.860-13.560 223.830-13.620L223.830-13.620Q223.500-15.990 222.390-17.055Q221.280-18.120 219.420-18.120L219.420-18.120Q218.610-18.120 218.190-17.970Q217.770-17.820 217.620-17.415Q217.470-17.010 217.470-16.260L217.470-16.260L217.470-2.430Q217.470-1.560 217.665-1.110Q217.860-0.660 218.415-0.510Q218.970-0.360 220.110-0.360L220.110-0.360Q220.200-0.360 220.200-0.180Q220.200 0 220.110 0L220.110 0Q219.300 0 218.265-0.030Q217.230-0.060 216.000-0.060L216.000-0.060Q214.830-0.060 213.810-0.030Q212.790 0 211.920 0L211.920 0Q211.860 0 211.860-0.180Q211.860-0.360 211.920-0.360L211.920-0.360Q213.060-0.360 213.630-0.510Q214.200-0.660 214.395-1.110Q214.590-1.560 214.590-2.430L214.590-2.430L214.590-16.320Q214.590-17.070 214.455-17.445Q214.320-17.820 213.900-17.970Q213.480-18.120 212.670-18.120ZM248.160-10.140L248.160-16.260Q248.160-17.130 247.980-17.580Q247.800-18.030 247.260-18.210Q246.720-18.390 245.610-18.390L245.610-18.390Q245.520-18.390 245.520-18.570Q245.520-18.750 245.610-18.750L245.610-18.750Q246.360-18.750 247.335-18.705Q248.310-18.660 249.600-18.660L249.600-18.660Q250.650-18.660 251.670-18.705Q252.690-18.750 253.440-18.750L253.440-18.750Q253.530-18.750 253.530-18.570Q253.530-18.390 253.440-18.390L253.440-18.390Q252.390-18.390 251.865-18.225Q251.340-18.060 251.160-17.625Q250.980-17.190 250.980-16.320L250.980-16.320L250.980-2.430Q250.980-1.560 251.160-1.110Q251.340-0.660 251.865-0.510Q252.390-0.360 253.440-0.360L253.440-0.360Q253.530-0.360 253.530-0.180Q253.530 0 253.440 0L253.440 0Q252.690 0 251.670-0.030Q250.650-0.060 249.600-0.060L249.600-0.060Q248.310-0.060 247.335-0.030Q246.360 0 245.610 0L245.610 0Q245.520 0 245.520-0.180Q245.520-0.360 245.610-0.360L245.610-0.360Q246.720-0.360 247.260-0.510Q247.800-0.660 247.980-1.110Q248.160-1.560 248.160-2.430L248.160-2.430L248.160-9.360L237.840-9.360L237.840-2.430Q237.840-1.560 238.020-1.110Q238.200-0.660 238.755-0.510Q239.310-0.360 240.360-0.360L240.360-0.360Q240.420-0.360 240.420-0.180Q240.420 0 240.360 0L240.360 0Q239.550 0 238.575-0.030Q237.600-0.060 236.310-0.060L236.310-0.060Q235.260-0.060 234.270-0.030Q233.280 0 232.530 0L232.530 0Q232.470 0 232.470-0.180Q232.470-0.360 232.530-0.360L232.530-0.360Q233.580-0.360 234.090-0.510Q234.600-0.660 234.795-1.110Q234.990-1.560 234.990-2.430L234.990-2.430L234.990-16.320Q234.990-17.190 234.810-17.625Q234.630-18.060 234.120-18.225Q233.610-18.390 232.560-18.390L232.560-18.390Q232.500-18.390 232.500-18.570Q232.500-18.750 232.560-18.750L232.560-18.750Q233.340-18.750 234.300-18.705Q235.260-18.660 236.310-18.660L236.310-18.660Q237.600-18.660 238.590-18.705Q239.580-18.750 240.360-18.750L240.360-18.750Q240.420-18.750 240.420-18.570Q240.420-18.390 240.360-18.390L240.360-18.390Q239.280-18.390 238.740-18.210Q238.200-18.030 238.020-17.580Q237.840-17.130 237.840-16.260L237.840-16.260L237.840-10.140L248.160-10.140ZM274.710 0L274.710 0L261.690 0Q261.600 0 261.600-0.180Q261.600-0.360 261.690-0.360L261.690-0.360Q262.680-0.360 263.160-0.510Q263.640-0.660 263.805-1.110Q263.970-1.560 263.970-2.430L263.970-2.430L263.970-16.320Q263.970-17.190 263.805-17.625Q263.640-18.060 263.160-18.225Q262.680-18.390 261.690-18.390L261.690-18.390Q261.600-18.390 261.600-18.570Q261.600-18.750 261.690-18.750L261.690-18.750L274.170-18.750Q274.470-18.750 274.470-18.480L274.470-18.480L274.530-14.580Q274.530-14.520 274.380-14.505Q274.230-14.490 274.170-14.580L274.170-14.580Q273.840-16.290 272.790-17.130Q271.740-17.970 270.030-17.970L270.030-17.970L268.800-17.970Q268.050-17.970 267.615-17.805Q267.180-17.640 267-17.265Q266.820-16.890 266.820-16.260L266.820-16.260L266.820-10.140L269.700-10.140Q271.380-10.140 272.190-10.710Q273-11.280 273-12.360L273-12.360Q273-12.450 273.165-12.450Q273.330-12.450 273.330-12.360L273.330-12.360Q273.330-11.400 273.315-10.860Q273.300-10.320 273.300-9.750L273.300-9.750Q273.300-9.030 273.345-8.325Q273.390-7.620 273.390-6.780L273.390-6.780Q273.390-6.720 273.210-6.720Q273.030-6.720 273.030-6.780L273.030-6.780Q273.030-8.040 272.190-8.700Q271.350-9.360 269.670-9.360L269.670-9.360L266.820-9.360L266.820-2.550Q266.820-1.920 266.985-1.515Q267.150-1.110 267.510-0.945Q267.870-0.780 268.530-0.780L268.530-0.780L270-0.780Q272.040-0.780 273.300-1.755Q274.560-2.730 275.100-4.650L275.100-4.650Q275.130-4.740 275.295-4.710Q275.460-4.680 275.460-4.620L275.460-4.620Q275.340-3.780 275.250-2.610Q275.160-1.440 275.160-0.450L275.160-0.450Q275.160 0 274.710 0Z"></path></g>
    <g transform="translate(510.519 770)"><path d="M18.544 0.380L18.544 0.380L7.524-20.102L4.712-4.294Q4.408-2.394 5.016-1.425Q5.624-0.456 7.030-0.456L7.030-0.456Q7.106-0.456 7.106-0.228Q7.106 0 7.030 0L7.030 0Q6.270 0 5.453-0.038Q4.636-0.076 3.572-0.076L3.572-0.076Q2.660-0.076 1.767-0.038Q0.874 0 0.114 0L0.114 0Q0 0 0-0.228Q0-0.456 0.114-0.456L0.114-0.456Q1.520-0.456 2.489-1.425Q3.458-2.394 3.762-4.294L3.762-4.294L6.840-21.356Q6.232-22.344 5.662-22.762L5.662-22.762Q4.902-23.294 4.104-23.294L4.104-23.294Q3.990-23.294 3.990-23.522Q3.990-23.750 4.104-23.750L4.104-23.750Q4.788-23.750 5.662-23.712Q6.536-23.674 7.144-23.674L7.144-23.674Q7.714-23.674 8.417-23.712Q9.120-23.750 9.310-23.750L9.310-23.750Q9.728-23.750 9.842-23.313Q9.956-22.876 10.526-21.774L10.526-21.774L19.456-5.130L22.040-19.456Q22.382-21.318 21.793-22.306Q21.204-23.294 19.760-23.294L19.760-23.294Q19.646-23.294 19.646-23.522Q19.646-23.750 19.760-23.750L19.760-23.750Q20.406-23.750 21.261-23.693Q22.116-23.636 23.180-23.636L23.180-23.636Q24.130-23.636 25.004-23.693Q25.878-23.750 26.676-23.750L26.676-23.750Q26.752-23.750 26.752-23.522Q26.752-23.294 26.676-23.294L26.676-23.294Q25.270-23.294 24.301-22.306Q23.332-21.318 22.990-19.456L22.990-19.456L19.494 0.304Q19.456 0.494 19.057 0.551Q18.658 0.608 18.544 0.380ZM30.818 0.532L30.818 0.532Q28.804 0.532 27.588-0.551Q26.372-1.634 25.973-3.420Q25.574-5.206 25.992-7.334L25.992-7.334Q26.410-9.614 27.626-11.381Q28.842-13.148 30.552-14.155Q32.262-15.162 34.238-15.162L34.238-15.162Q36.328-15.162 37.563-14.098Q38.798-13.034 39.197-11.267Q39.596-9.500 39.140-7.334L39.140-7.334Q38.684-4.826 37.354-3.040Q36.024-1.254 34.295-0.361Q32.566 0.532 30.818 0.532ZM32.110-0.418L32.110-0.418Q33.440-0.418 34.485-1.824Q35.530-3.230 35.948-5.662L35.948-5.662Q36.252-7.258 36.214-8.778Q36.176-10.298 35.796-11.552Q35.416-12.806 34.713-13.528Q34.010-14.250 33.022-14.250L33.022-14.250Q31.768-14.250 30.723-12.920Q29.678-11.590 29.184-8.968L29.184-8.968Q28.880-7.334 28.937-5.795Q28.994-4.256 29.374-3.059Q29.754-1.862 30.457-1.140Q31.160-0.418 32.110-0.418ZM44.308 0.342L44.308 0.342Q43.168 0.342 42.826-0.551Q42.484-1.444 42.864-3.382L42.864-3.382L44.422-11.286Q44.726-12.806 44.194-13.148L44.194-13.148Q44.042-13.262 43.814-13.262L43.814-13.262Q43.434-13.262 42.826-12.863Q42.218-12.464 41.496-11.666L41.496-11.666Q41.420-11.590 41.344-11.590L41.344-11.590Q41.268-11.590 41.192-11.704L41.192-11.704Q41.040-11.856 41.154-12.008L41.154-12.008Q42.522-13.604 43.605-14.307Q44.688-15.010 45.714-15.010L45.714-15.010Q46.854-15.010 47.196-14.174Q47.538-13.338 47.196-11.628L47.196-11.628L45.600-3.382Q45.410-2.280 45.600-1.862Q45.790-1.444 46.170-1.444L46.170-1.444Q46.588-1.444 47.139-1.843Q47.690-2.242 48.374-2.888L48.374-2.888Q48.526-3.040 48.678-2.888Q48.830-2.736 48.678-2.584L48.678-2.584Q47.462-1.178 46.436-0.418Q45.410 0.342 44.308 0.342ZM46.816-19.152L46.816-19.152Q45.904-19.152 45.353-19.665Q44.802-20.178 44.802-21.166L44.802-21.166Q44.802-22.002 45.353-22.515Q45.904-23.028 46.816-23.028Q47.728-23.028 48.222-22.515Q48.716-22.002 48.716-21.166L48.716-21.166Q48.716-19.152 46.816-19.152ZM53.656 0.418L53.656 0.418Q52.022 0.418 50.882-0.342Q49.742-1.102 49.894-2.204L49.894-2.204Q50.008-2.850 50.445-3.211Q50.882-3.572 51.414-3.572L51.414-3.572Q52.060-3.572 52.421-3.135Q52.782-2.698 53.105-2.147Q53.428-1.596 53.903-1.159Q54.378-0.722 55.214-0.722L55.214-0.722Q56.012-0.722 56.430-1.159Q56.848-1.596 57-2.508L57-2.508Q57.152-3.724 56.620-4.579Q56.088-5.434 55.195-6.118Q54.302-6.802 53.466-7.524Q52.630-8.246 52.136-9.139Q51.642-10.032 51.870-11.248L51.870-11.248Q52.060-12.274 52.820-13.129Q53.580-13.984 54.758-14.516Q55.936-15.048 57.304-15.048L57.304-15.048Q58.938-15.048 59.926-14.459Q60.914-13.870 60.800-12.920L60.800-12.920Q60.724-12.236 60.249-11.875Q59.774-11.514 59.280-11.514L59.280-11.514Q58.520-11.514 58.159-11.894Q57.798-12.274 57.570-12.787Q57.342-13.300 56.981-13.680Q56.620-14.060 55.784-14.060L55.784-14.060Q55.062-14.060 54.682-13.680Q54.302-13.300 54.188-12.768L54.188-12.768Q53.998-11.666 54.530-10.830Q55.062-9.994 55.955-9.291Q56.848-8.588 57.703-7.828Q58.558-7.068 59.071-6.156Q59.584-5.244 59.394-4.028L59.394-4.028Q59.204-3.040 58.425-1.995Q57.646-0.950 56.430-0.266Q55.214 0.418 53.656 0.418ZM67.450 0.456L67.450 0.456Q65.322 0.456 64.106-0.627Q62.890-1.710 62.529-3.420Q62.168-5.130 62.548-7.030L62.548-7.030Q62.814-8.474 63.612-9.937Q64.410-11.400 65.607-12.578Q66.804-13.756 68.324-14.459Q69.844-15.162 71.592-15.162L71.592-15.162Q73.074-15.162 73.815-14.630Q74.556-14.098 74.442-13.110L74.442-13.110Q74.328-12.160 73.435-11.267Q72.542-10.374 71.079-9.671Q69.616-8.968 67.830-8.474L67.830-8.474Q66.766-8.170 65.702-7.980L65.702-7.980Q65.436-6.156 65.702-4.674L65.702-4.674Q65.968-3.040 66.918-2.071Q67.868-1.102 69.426-1.102L69.426-1.102Q70.224-1.102 71.174-1.368Q72.124-1.634 72.998-2.280L72.998-2.280Q72.998-2.280 73.036-2.318L73.036-2.318Q73.112-2.318 73.226-2.204L73.226-2.204Q73.340-2.052 73.264-1.976L73.264-1.976Q71.820-0.646 70.338-0.095Q68.856 0.456 67.450 0.456ZM65.778-8.550L65.778-8.550Q67.564-8.968 68.894-9.652L68.894-9.652Q70.756-10.602 71.060-12.312L71.060-12.312Q71.250-13.224 70.832-13.680Q70.414-14.136 69.692-14.136L69.692-14.136Q68.704-14.136 67.906-13.357Q67.108-12.578 66.576-11.248L66.576-11.248Q66.044-10.032 65.778-8.550Z"></path></g>
  </g>
  <path d="M 214.66 796 Q 221.66 791 228.66 796 Q 235.66 801 242.66 796 Q 249.66 791 256.66 796 Q 263.66 801 270.66 796 Q 277.66 791 284.66 796 Q 291.66 801 298.66 796 Q 305.66 791 312.66 796 Q 319.66 801 326.66 796 Q 333.66 791 340.66 796 Q 347.66 801 354.66 796 Q 361.66 791 368.66 796 Q 375.66 801 382.66 796 Q 389.66 791 396.66 796 Q 403.66 801 410.66 796 Q 417.66 791 424.66 796 Q 431.66 801 438.66 796 Q 445.66 791 452.66 796 Q 459.66 801 466.66 796 Q 473.66 791 480.66 796 Q 487.66 801 494.66 796 Q 501.66 791 508.66 796 Q 515.66 801 522.66 796 Q 529.66 791 536.66 796 Q 543.66 801 550.66 796 Q 557.66 791 564.66 796 Q 571.66 801 578.66 796 Q 585.66 791 585.34 796" stroke="#8aa0b8" stroke-width="1.6" fill="none" opacity="0.9"></path>
</svg>